<?xml version="1.0" encoding="UTF-8" standalone="no"?>
<!DOCTYPE svg PUBLIC "-//W3C//DTD SVG 1.1//EN"
 "http://www.w3.org/Graphics/SVG/1.1/DTD/svg11.dtd">
<!-- Generated by graphviz version 2.43.0 (0)
 -->
<!-- Title: EncontrarCaminhos Pages: 1 -->
<svg width="424pt" height="82pt"
 viewBox="0.00 0.00 424.00 82.00" xmlns="http://www.w3.org/2000/svg" xmlns:xlink="http://www.w3.org/1999/xlink">

<svg id="main" version="1.1" xmlns="http://www.w3.org/2000/svg" xmlns:xlink="http://www.w3.org/1999/xlink" xml:space="preserve" onload="init(evt)">
<style type="text/css"><![CDATA[
.node, .edge {opacity: 0.7;}
.node.selected, .edge.selected {opacity: 1;}
.edge:hover path { stroke: red; }
.edge:hover polygon { stroke: red; fill: red; }
]]></style>
<script type="application/ecmascript" xlink:href="svg.min.js"/>
<svg id="graph" class="graph">
<g id="graph0" class="graph" transform="scale(1 1) rotate(0) translate(4 78)">
<title>EncontrarCaminhos</title>
<!-- Node1 -->
<g id="Node000001" class="node">
<title>Node1</title>
<g id="a_Node000001"><a xlink:title=" ">
<polygon fill="#999999" stroke="#666666" points="112,-37 0,-37 0,-18 112,-18 112,-37"/>
<text text-anchor="middle" x="56" y="-25" font-family="Helvetica,sans-Serif" font-size="10.00">EncontrarCaminhos</text>
</a>
</g>
</g>
<!-- Node2 -->
<g id="Node000002" class="node">
<title>Node2</title>
<g id="a_Node000002"><a xlink:href="funcoes_8c.html#a7d414ff6224e9040d3368de4bea3cfe1" target="_top" xlink:title=" ">
<polygon fill="white" stroke="#666666" points="278,-56 148,-56 148,-37 278,-37 278,-56"/>
<text text-anchor="middle" x="213" y="-44" font-family="Helvetica,sans-Serif" font-size="10.00">EncontrarCaminhosRec</text>
</a>
</g>
</g>
<!-- Node1&#45;&gt;Node2 -->
<g id="edge1_Node000001_Node000002" class="edge">
<title>Node1&#45;&gt;Node2</title>
<g id="a_edge1_Node000001_Node000002"><a xlink:title=" ">
<path fill="none" stroke="#63b8ff" d="M112.08,-34.25C120.4,-35.27 129.1,-36.34 137.74,-37.4"/>
<polygon fill="#63b8ff" stroke="#63b8ff" points="137.48,-40.89 147.83,-38.63 138.33,-33.94 137.48,-40.89"/>
</a>
</g>
</g>
<!-- Node4 -->
<g id="Node000004" class="node">
<title>Node4</title>
<g id="a_Node000004"><a xlink:href="funcoes_8c.html#a5f4ca7899307299d713da05e73505b69" target="_top" xlink:title=" ">
<polygon fill="white" stroke="#666666" points="260.5,-19 165.5,-19 165.5,0 260.5,0 260.5,-19"/>
<text text-anchor="middle" x="213" y="-7" font-family="Helvetica,sans-Serif" font-size="10.00">LimparVisitados</text>
</a>
</g>
</g>
<!-- Node1&#45;&gt;Node4 -->
<g id="edge5_Node000001_Node000004" class="edge">
<title>Node1&#45;&gt;Node4</title>
<g id="a_edge5_Node000001_Node000004"><a xlink:title=" ">
<path fill="none" stroke="#63b8ff" d="M112.08,-21.1C126.09,-19.48 141.16,-17.73 155.25,-16.09"/>
<polygon fill="#63b8ff" stroke="#63b8ff" points="155.77,-19.55 165.3,-14.92 154.96,-12.6 155.77,-19.55"/>
</a>
</g>
</g>
<!-- Node2&#45;&gt;Node2 -->
<g id="edge2_Node000002_Node000002" class="edge">
<title>Node2&#45;&gt;Node2</title>
<g id="a_edge2_Node000002_Node000002"><a xlink:title=" ">
<path fill="none" stroke="#63b8ff" d="M189.57,-56.08C178.18,-64.73 185.98,-74 213,-74 230.73,-74 240.19,-70.01 241.37,-64.82"/>
<polygon fill="#63b8ff" stroke="#63b8ff" points="244.4,-63.06 236.43,-56.08 238.31,-66.51 244.4,-63.06"/>
</a>
</g>
</g>
<!-- Node3 -->
<g id="Node000003" class="node">
<title>Node3</title>
<g id="a_Node000003"><a xlink:href="funcoes_8c.html#a600533fd77bfb8d9f859d07b84d93bf9" target="_top" xlink:title=" ">
<polygon fill="white" stroke="#666666" points="416,-56 314,-56 314,-37 416,-37 416,-56"/>
<text text-anchor="middle" x="365" y="-44" font-family="Helvetica,sans-Serif" font-size="10.00">ImprimirCaminho</text>
</a>
</g>
</g>
<!-- Node2&#45;&gt;Node3 -->
<g id="edge3_Node000002_Node000003" class="edge">
<title>Node2&#45;&gt;Node3</title>
<g id="a_edge3_Node000002_Node000003"><a xlink:title=" ">
<path fill="none" stroke="#63b8ff" d="M278.05,-46.5C286.54,-46.5 295.22,-46.5 303.65,-46.5"/>
<polygon fill="#63b8ff" stroke="#63b8ff" points="303.77,-50 313.77,-46.5 303.77,-43 303.77,-50"/>
</a>
</g>
</g>
<!-- Node3&#45;&gt;Node3 -->
<g id="edge4_Node000003_Node000003" class="edge">
<title>Node3&#45;&gt;Node3</title>
<g id="a_edge4_Node000003_Node000003"><a xlink:title=" ">
<path fill="none" stroke="#63b8ff" d="M341.57,-56.08C330.18,-64.73 337.98,-74 365,-74 382.73,-74 392.19,-70.01 393.37,-64.82"/>
<polygon fill="#63b8ff" stroke="#63b8ff" points="396.4,-63.06 388.43,-56.08 390.31,-66.51 396.4,-63.06"/>
</a>
</g>
</g>
</g>
</svg>
</svg>

<style type='text/css'>
<![CDATA[
[data-mouse-over-selected='false'] { opacity: 0.7; }
[data-mouse-over-selected='true']  { opacity: 1.0; }
]]>
</style>
<script type="application/ecmascript"><![CDATA[
document.addEventListener('DOMContentLoaded', (event) => {
  highlightEdges();
  highlightAdjacentNodes();
});
]]></script>
</svg>
