<?xml version="1.0" encoding="UTF-8" standalone="no"?>
<!DOCTYPE svg PUBLIC "-//W3C//DTD SVG 1.1//EN"
 "http://www.w3.org/Graphics/SVG/1.1/DTD/svg11.dtd">
<!-- Generated by graphviz version 2.43.0 (0)
 -->
<!-- Title: Resultados Pages: 1 -->
<svg width="562pt" height="250pt"
 viewBox="0.00 0.00 562.00 250.00" xmlns="http://www.w3.org/2000/svg" xmlns:xlink="http://www.w3.org/1999/xlink">
<g id="graph0" class="graph" transform="scale(1 1) rotate(0) translate(4 246)">
<title>Resultados</title>
<!-- Node1 -->
<g id="Node000001" class="node">
<title>Node1</title>
<g id="a_Node000001"><a xlink:title=" ">
<polygon fill="#999999" stroke="#666666" points="71,-129 0,-129 0,-110 71,-110 71,-129"/>
<text text-anchor="middle" x="35.5" y="-117" font-family="Helvetica,sans-Serif" font-size="10.00">Resultados</text>
</a>
</g>
</g>
<!-- Node2 -->
<g id="Node000002" class="node">
<title>Node2</title>
<g id="a_Node000002"><a xlink:href="funcoes_8c.html#af1bdd09c7693f114da612b96c50ba3a9" target="_top" xlink:title=" ">
<polygon fill="white" stroke="#666666" points="234.5,-224 122.5,-224 122.5,-205 234.5,-205 234.5,-224"/>
<text text-anchor="middle" x="178.5" y="-212" font-family="Helvetica,sans-Serif" font-size="10.00">EncontrarCaminhos</text>
</a>
</g>
</g>
<!-- Node1&#45;&gt;Node2 -->
<g id="edge1_Node000001_Node000002" class="edge">
<title>Node1&#45;&gt;Node2</title>
<g id="a_edge1_Node000001_Node000002"><a xlink:title=" ">
<path fill="none" stroke="#63b8ff" d="M43.66,-129.17C55.33,-144.29 79.89,-173.56 107,-190.5 113.94,-194.84 121.75,-198.49 129.59,-201.55"/>
<polygon fill="#63b8ff" stroke="#63b8ff" points="128.5,-204.87 139.1,-204.97 130.87,-198.29 128.5,-204.87"/>
</a>
</g>
</g>
<!-- Node5 -->
<g id="Node000005" class="node">
<title>Node5</title>
<g id="a_Node000005"><a xlink:href="funcoes_8c.html#a5f4ca7899307299d713da05e73505b69" target="_top" xlink:title=" ">
<polygon fill="white" stroke="#666666" points="398.5,-187 303.5,-187 303.5,-168 398.5,-168 398.5,-187"/>
<text text-anchor="middle" x="351" y="-175" font-family="Helvetica,sans-Serif" font-size="10.00">LimparVisitados</text>
</a>
</g>
</g>
<!-- Node1&#45;&gt;Node5 -->
<g id="edge7_Node000001_Node000005" class="edge">
<title>Node1&#45;&gt;Node5</title>
<g id="a_edge7_Node000001_Node000005"><a xlink:title=" ">
<path fill="none" stroke="#63b8ff" d="M50.63,-129.09C64.37,-137.87 86.17,-150.4 107,-156.5 168.84,-174.6 243.03,-178.6 293.03,-178.87"/>
<polygon fill="#63b8ff" stroke="#63b8ff" points="293.32,-182.37 303.32,-178.88 293.32,-175.37 293.32,-182.37"/>
</a>
</g>
</g>
<!-- Node6 -->
<g id="Node000006" class="node">
<title>Node6</title>
<g id="a_Node000006"><a xlink:href="funcoes_8c.html#a7a2f033a77edbf2fb3971d2471bfea49" target="_top" xlink:title=" ">
<polygon fill="white" stroke="#666666" points="239.5,-148 117.5,-148 117.5,-129 239.5,-129 239.5,-148"/>
<text text-anchor="middle" x="178.5" y="-136" font-family="Helvetica,sans-Serif" font-size="10.00">MostrarInterferencias</text>
</a>
</g>
</g>
<!-- Node1&#45;&gt;Node6 -->
<g id="edge8_Node000001_Node000006" class="edge">
<title>Node1&#45;&gt;Node6</title>
<g id="a_edge8_Node000001_Node000006"><a xlink:title=" ">
<path fill="none" stroke="#63b8ff" d="M71.35,-124.2C82.29,-125.67 94.79,-127.35 107.27,-129.04"/>
<polygon fill="#63b8ff" stroke="#63b8ff" points="106.87,-132.51 117.25,-130.38 107.8,-125.58 106.87,-132.51"/>
</a>
</g>
</g>
<!-- Node7 -->
<g id="Node000007" class="node">
<title>Node7</title>
<g id="a_Node000007"><a xlink:href="funcoes_8c.html#a86286bb4f2de0e99bbd66dc24d04a139" target="_top" xlink:title=" ">
<polygon fill="white" stroke="#666666" points="233.5,-111 123.5,-111 123.5,-92 233.5,-92 233.5,-111"/>
<text text-anchor="middle" x="178.5" y="-99" font-family="Helvetica,sans-Serif" font-size="10.00">MostrarIntersecoes</text>
</a>
</g>
</g>
<!-- Node1&#45;&gt;Node7 -->
<g id="edge9_Node000001_Node000007" class="edge">
<title>Node1&#45;&gt;Node7</title>
<g id="a_edge9_Node000001_Node000007"><a xlink:title=" ">
<path fill="none" stroke="#63b8ff" d="M71.35,-115.05C84.08,-113.43 98.9,-111.53 113.36,-109.69"/>
<polygon fill="#63b8ff" stroke="#63b8ff" points="113.81,-113.16 123.29,-108.42 112.93,-106.22 113.81,-113.16"/>
</a>
</g>
</g>
<!-- Node8 -->
<g id="Node000008" class="node">
<title>Node8</title>
<g id="a_Node000008"><a xlink:href="funcoes_8c.html#ac270724ecaf8fdb9a56b8a16535e9f2b" target="_top" xlink:title=" ">
<polygon fill="white" stroke="#666666" points="236,-74 121,-74 121,-55 236,-55 236,-74"/>
<text text-anchor="middle" x="178.5" y="-62" font-family="Helvetica,sans-Serif" font-size="10.00">TravessiaEmLargura</text>
</a>
</g>
</g>
<!-- Node1&#45;&gt;Node8 -->
<g id="edge10_Node000001_Node000008" class="edge">
<title>Node1&#45;&gt;Node8</title>
<g id="a_edge10_Node000001_Node000008"><a xlink:title=" ">
<path fill="none" stroke="#63b8ff" d="M52.24,-109.87C66.21,-101.66 87.39,-90.03 107,-82.5 112.23,-80.49 117.77,-78.64 123.35,-76.95"/>
<polygon fill="#63b8ff" stroke="#63b8ff" points="124.73,-80.19 133.38,-74.08 122.8,-73.46 124.73,-80.19"/>
</a>
</g>
</g>
<!-- Node9 -->
<g id="Node000009" class="node">
<title>Node9</title>
<g id="a_Node000009"><a xlink:href="funcoes_8c.html#affc8344f765fac08919ef2ef9625241e" target="_top" xlink:title=" ">
<polygon fill="white" stroke="#666666" points="250,-19 107,-19 107,0 250,0 250,-19"/>
<text text-anchor="middle" x="178.5" y="-7" font-family="Helvetica,sans-Serif" font-size="10.00">TravessiaEmProfundidade</text>
</a>
</g>
</g>
<!-- Node1&#45;&gt;Node9 -->
<g id="edge11_Node000001_Node000009" class="edge">
<title>Node1&#45;&gt;Node9</title>
<g id="a_edge11_Node000001_Node000009"><a xlink:title=" ">
<path fill="none" stroke="#63b8ff" d="M43.88,-109.86C55.86,-94.71 80.83,-65.02 107,-45.5 118.59,-36.86 132.56,-29.24 144.99,-23.26"/>
<polygon fill="#63b8ff" stroke="#63b8ff" points="146.54,-26.4 154.14,-19.02 143.59,-20.05 146.54,-26.4"/>
</a>
</g>
</g>
<!-- Node3 -->
<g id="Node000003" class="node">
<title>Node3</title>
<g id="a_Node000003"><a xlink:href="funcoes_8c.html#a7d414ff6224e9040d3368de4bea3cfe1" target="_top" xlink:title=" ">
<polygon fill="white" stroke="#666666" points="416,-224 286,-224 286,-205 416,-205 416,-224"/>
<text text-anchor="middle" x="351" y="-212" font-family="Helvetica,sans-Serif" font-size="10.00">EncontrarCaminhosRec</text>
</a>
</g>
</g>
<!-- Node2&#45;&gt;Node3 -->
<g id="edge2_Node000002_Node000003" class="edge">
<title>Node2&#45;&gt;Node3</title>
<g id="a_edge2_Node000002_Node000003"><a xlink:title=" ">
<path fill="none" stroke="#63b8ff" d="M234.86,-214.5C247.8,-214.5 261.79,-214.5 275.41,-214.5"/>
<polygon fill="#63b8ff" stroke="#63b8ff" points="275.73,-218 285.73,-214.5 275.73,-211 275.73,-218"/>
</a>
</g>
</g>
<!-- Node2&#45;&gt;Node5 -->
<g id="edge6_Node000002_Node000005" class="edge">
<title>Node2&#45;&gt;Node5</title>
<g id="a_edge6_Node000002_Node000005"><a xlink:title=" ">
<path fill="none" stroke="#63b8ff" d="M223.41,-204.97C245.6,-200.16 272.71,-194.27 296.15,-189.19"/>
<polygon fill="#63b8ff" stroke="#63b8ff" points="296.91,-192.6 305.94,-187.06 295.43,-185.76 296.91,-192.6"/>
</a>
</g>
</g>
<!-- Node3&#45;&gt;Node3 -->
<g id="edge3_Node000003_Node000003" class="edge">
<title>Node3&#45;&gt;Node3</title>
<g id="a_edge3_Node000003_Node000003"><a xlink:title=" ">
<path fill="none" stroke="#63b8ff" d="M327.57,-224.08C316.18,-232.73 323.98,-242 351,-242 368.73,-242 378.19,-238.01 379.37,-232.82"/>
<polygon fill="#63b8ff" stroke="#63b8ff" points="382.4,-231.06 374.43,-224.08 376.31,-234.51 382.4,-231.06"/>
</a>
</g>
</g>
<!-- Node4 -->
<g id="Node000004" class="node">
<title>Node4</title>
<g id="a_Node000004"><a xlink:href="funcoes_8c.html#a600533fd77bfb8d9f859d07b84d93bf9" target="_top" xlink:title=" ">
<polygon fill="white" stroke="#666666" points="554,-224 452,-224 452,-205 554,-205 554,-224"/>
<text text-anchor="middle" x="503" y="-212" font-family="Helvetica,sans-Serif" font-size="10.00">ImprimirCaminho</text>
</a>
</g>
</g>
<!-- Node3&#45;&gt;Node4 -->
<g id="edge4_Node000003_Node000004" class="edge">
<title>Node3&#45;&gt;Node4</title>
<g id="a_edge4_Node000003_Node000004"><a xlink:title=" ">
<path fill="none" stroke="#63b8ff" d="M416.05,-214.5C424.54,-214.5 433.22,-214.5 441.65,-214.5"/>
<polygon fill="#63b8ff" stroke="#63b8ff" points="441.77,-218 451.77,-214.5 441.77,-211 441.77,-218"/>
</a>
</g>
</g>
<!-- Node4&#45;&gt;Node4 -->
<g id="edge5_Node000004_Node000004" class="edge">
<title>Node4&#45;&gt;Node4</title>
<g id="a_edge5_Node000004_Node000004"><a xlink:title=" ">
<path fill="none" stroke="#63b8ff" d="M479.57,-224.08C468.18,-232.73 475.98,-242 503,-242 520.73,-242 530.19,-238.01 531.37,-232.82"/>
<polygon fill="#63b8ff" stroke="#63b8ff" points="534.4,-231.06 526.43,-224.08 528.31,-234.51 534.4,-231.06"/>
</a>
</g>
</g>
<!-- Node9&#45;&gt;Node9 -->
<g id="edge12_Node000009_Node000009" class="edge">
<title>Node9&#45;&gt;Node9</title>
<g id="a_edge12_Node000009_Node000009"><a xlink:title=" ">
<path fill="none" stroke="#63b8ff" d="M156.61,-19.08C145.97,-27.73 153.26,-37 178.5,-37 194.67,-37 203.47,-33.2 204.91,-28.19"/>
<polygon fill="#63b8ff" stroke="#63b8ff" points="207.97,-26.48 200.39,-19.08 201.7,-29.6 207.97,-26.48"/>
</a>
</g>
</g>
</g>
</svg>
