<?xml version="1.0" encoding="UTF-8" standalone="no"?>
<!DOCTYPE svg PUBLIC "-//W3C//DTD SVG 1.1//EN"
 "http://www.w3.org/Graphics/SVG/1.1/DTD/svg11.dtd">
<!-- Generated by graphviz version 2.43.0 (0)
 -->
<!-- Title: /home/vitor/Desktop/adicionardoxygen/projetoEDA_31553/projetoEDA_Fase2_Melhoria/projetoEDA_Fase2_Melhoria/antenas.h Pages: 1 -->
<svg width="351pt" height="115pt"
 viewBox="0.00 0.00 350.50 115.00" xmlns="http://www.w3.org/2000/svg" xmlns:xlink="http://www.w3.org/1999/xlink">
<g id="graph0" class="graph" transform="scale(1 1) rotate(0) translate(4 111)">
<title>/home/vitor/Desktop/adicionardoxygen/projetoEDA_31553/projetoEDA_Fase2_Melhoria/projetoEDA_Fase2_Melhoria/antenas.h</title>
<!-- Node1 -->
<g id="Node000001" class="node">
<title>Node1</title>
<g id="a_Node000001"><a xlink:title="Estruturas e funções para manipulação de antenas em um grafo.">
<polygon fill="#999999" stroke="#666666" points="274,-107 68,-107 68,-55 274,-55 274,-107"/>
<text text-anchor="start" x="76" y="-95" font-family="Helvetica,sans-Serif" font-size="10.00">/home/vitor/Desktop</text>
<text text-anchor="start" x="76" y="-84" font-family="Helvetica,sans-Serif" font-size="10.00">/adicionardoxygen/projetoEDA</text>
<text text-anchor="start" x="76" y="-73" font-family="Helvetica,sans-Serif" font-size="10.00">_31553/projetoEDA_Fase2_Melhoria</text>
<text text-anchor="middle" x="171" y="-62" font-family="Helvetica,sans-Serif" font-size="10.00">/projetoEDA_Fase2_Melhoria/antenas.h</text>
</a>
</g>
</g>
<!-- Node2 -->
<g id="Node000002" class="node">
<title>Node2</title>
<g id="a_Node000002"><a xlink:title=" ">
<polygon fill="#e0e0e0" stroke="#999999" points="50,-19 0,-19 0,0 50,0 50,-19"/>
<text text-anchor="middle" x="25" y="-7" font-family="Helvetica,sans-Serif" font-size="10.00">stdio.h</text>
</a>
</g>
</g>
<!-- Node1&#45;&gt;Node2 -->
<g id="edge1_Node000001_Node000002" class="edge">
<title>Node1&#45;&gt;Node2</title>
<g id="a_edge1_Node000001_Node000002"><a xlink:title=" ">
<path fill="none" stroke="#63b8ff" d="M118.29,-54.91C95.89,-44.25 70.73,-32.27 52.18,-23.44"/>
<polygon fill="#63b8ff" stroke="#63b8ff" points="53.67,-20.27 43.14,-19.14 50.67,-26.59 53.67,-20.27"/>
</a>
</g>
</g>
<!-- Node3 -->
<g id="Node000003" class="node">
<title>Node3</title>
<g id="a_Node000003"><a xlink:title=" ">
<polygon fill="#e0e0e0" stroke="#999999" points="121.5,-19 68.5,-19 68.5,0 121.5,0 121.5,-19"/>
<text text-anchor="middle" x="95" y="-7" font-family="Helvetica,sans-Serif" font-size="10.00">stdlib.h</text>
</a>
</g>
</g>
<!-- Node1&#45;&gt;Node3 -->
<g id="edge2_Node000001_Node000003" class="edge">
<title>Node1&#45;&gt;Node3</title>
<g id="a_edge2_Node000001_Node000003"><a xlink:title=" ">
<path fill="none" stroke="#63b8ff" d="M143.56,-54.91C133.04,-45.29 121.34,-34.59 112.06,-26.11"/>
<polygon fill="#63b8ff" stroke="#63b8ff" points="114.37,-23.47 104.63,-19.3 109.64,-28.63 114.37,-23.47"/>
</a>
</g>
</g>
<!-- Node4 -->
<g id="Node000004" class="node">
<title>Node4</title>
<g id="a_Node000004"><a xlink:title=" ">
<polygon fill="#e0e0e0" stroke="#999999" points="202,-19 140,-19 140,0 202,0 202,-19"/>
<text text-anchor="middle" x="171" y="-7" font-family="Helvetica,sans-Serif" font-size="10.00">stdbool.h</text>
</a>
</g>
</g>
<!-- Node1&#45;&gt;Node4 -->
<g id="edge3_Node000001_Node000004" class="edge">
<title>Node1&#45;&gt;Node4</title>
<g id="a_edge3_Node000001_Node000004"><a xlink:title=" ">
<path fill="none" stroke="#63b8ff" d="M171,-54.91C171,-46.55 171,-37.38 171,-29.55"/>
<polygon fill="#63b8ff" stroke="#63b8ff" points="174.5,-29.3 171,-19.3 167.5,-29.3 174.5,-29.3"/>
</a>
</g>
</g>
<!-- Node5 -->
<g id="Node000005" class="node">
<title>Node5</title>
<g id="a_Node000005"><a xlink:title=" ">
<polygon fill="#e0e0e0" stroke="#999999" points="273.5,-19 220.5,-19 220.5,0 273.5,0 273.5,-19"/>
<text text-anchor="middle" x="247" y="-7" font-family="Helvetica,sans-Serif" font-size="10.00">string.h</text>
</a>
</g>
</g>
<!-- Node1&#45;&gt;Node5 -->
<g id="edge4_Node000001_Node000005" class="edge">
<title>Node1&#45;&gt;Node5</title>
<g id="a_edge4_Node000001_Node000005"><a xlink:title=" ">
<path fill="none" stroke="#63b8ff" d="M198.44,-54.91C208.96,-45.29 220.66,-34.59 229.94,-26.11"/>
<polygon fill="#63b8ff" stroke="#63b8ff" points="232.36,-28.63 237.37,-19.3 227.63,-23.47 232.36,-28.63"/>
</a>
</g>
</g>
<!-- Node6 -->
<g id="Node000006" class="node">
<title>Node6</title>
<g id="a_Node000006"><a xlink:title=" ">
<polygon fill="#e0e0e0" stroke="#999999" points="342.5,-19 291.5,-19 291.5,0 342.5,0 342.5,-19"/>
<text text-anchor="middle" x="317" y="-7" font-family="Helvetica,sans-Serif" font-size="10.00">math.h</text>
</a>
</g>
</g>
<!-- Node1&#45;&gt;Node6 -->
<g id="edge5_Node000001_Node000006" class="edge">
<title>Node1&#45;&gt;Node6</title>
<g id="a_edge5_Node000001_Node000006"><a xlink:title=" ">
<path fill="none" stroke="#63b8ff" d="M223.71,-54.91C246.11,-44.25 271.27,-32.27 289.82,-23.44"/>
<polygon fill="#63b8ff" stroke="#63b8ff" points="291.33,-26.59 298.86,-19.14 288.33,-20.27 291.33,-26.59"/>
</a>
</g>
</g>
</g>
</svg>
