<?xml version="1.0" encoding="UTF-8" standalone="no"?>
<!DOCTYPE svg PUBLIC "-//W3C//DTD SVG 1.1//EN"
 "http://www.w3.org/Graphics/SVG/1.1/DTD/svg11.dtd">
<!-- Generated by graphviz version 2.43.0 (0)
 -->
<!-- Title: /home/vitor/Desktop/adicionardoxygen/projetoEDA_31553/projetoEDA_Fase2_Melhoria/projetoEDA_Fase2_Melhoria/main.c Pages: 1 -->
<svg width="351pt" height="170pt"
 viewBox="0.00 0.00 350.50 170.00" xmlns="http://www.w3.org/2000/svg" xmlns:xlink="http://www.w3.org/1999/xlink">

<svg id="main" version="1.1" xmlns="http://www.w3.org/2000/svg" xmlns:xlink="http://www.w3.org/1999/xlink" xml:space="preserve" onload="init(evt)">
<style type="text/css"><![CDATA[
.node, .edge {opacity: 0.7;}
.node.selected, .edge.selected {opacity: 1;}
.edge:hover path { stroke: red; }
.edge:hover polygon { stroke: red; fill: red; }
]]></style>
<script type="application/ecmascript" xlink:href="svg.min.js"/>
<svg id="graph" class="graph">
<g id="graph0" class="graph" transform="scale(1 1) rotate(0) translate(4 166)">
<title>/home/vitor/Desktop/adicionardoxygen/projetoEDA_31553/projetoEDA_Fase2_Melhoria/projetoEDA_Fase2_Melhoria/main.c</title>
<!-- Node1 -->
<g id="Node000001" class="node">
<title>Node1</title>
<g id="a_Node000001"><a xlink:title="Ficheiro principal do programa de análise de antenas em um grafo.">
<polygon fill="#999999" stroke="#666666" points="266.5,-162 75.5,-162 75.5,-110 266.5,-110 266.5,-162"/>
<text text-anchor="start" x="83.5" y="-150" font-family="Helvetica,sans-Serif" font-size="10.00">/home/vitor/Desktop</text>
<text text-anchor="start" x="83.5" y="-139" font-family="Helvetica,sans-Serif" font-size="10.00">/adicionardoxygen/projetoEDA</text>
<text text-anchor="start" x="83.5" y="-128" font-family="Helvetica,sans-Serif" font-size="10.00">_31553/projetoEDA_Fase2_Melhoria</text>
<text text-anchor="middle" x="171" y="-117" font-family="Helvetica,sans-Serif" font-size="10.00">/projetoEDA_Fase2_Melhoria/main.c</text>
</a>
</g>
</g>
<!-- Node2 -->
<g id="Node000002" class="node">
<title>Node2</title>
<g id="a_Node000002"><a xlink:href="antenas_8h.html" target="_top" xlink:title="Estruturas e funções para manipulação de antenas em um grafo.">
<polygon fill="white" stroke="#666666" points="203.5,-74 138.5,-74 138.5,-55 203.5,-55 203.5,-74"/>
<text text-anchor="middle" x="171" y="-62" font-family="Helvetica,sans-Serif" font-size="10.00">antenas.h</text>
</a>
</g>
</g>
<!-- Node1&#45;&gt;Node2 -->
<g id="edge1_Node000001_Node000002" class="edge">
<title>Node1&#45;&gt;Node2</title>
<g id="a_edge1_Node000001_Node000002"><a xlink:title=" ">
<path fill="none" stroke="#63b8ff" d="M171,-109.91C171,-101.55 171,-92.38 171,-84.55"/>
<polygon fill="#63b8ff" stroke="#63b8ff" points="174.5,-84.3 171,-74.3 167.5,-84.3 174.5,-84.3"/>
</a>
</g>
</g>
<!-- Node3 -->
<g id="Node000003" class="node">
<title>Node3</title>
<g id="a_Node000003"><a xlink:title=" ">
<polygon fill="#e0e0e0" stroke="#999999" points="50,-19 0,-19 0,0 50,0 50,-19"/>
<text text-anchor="middle" x="25" y="-7" font-family="Helvetica,sans-Serif" font-size="10.00">stdio.h</text>
</a>
</g>
</g>
<!-- Node2&#45;&gt;Node3 -->
<g id="edge2_Node000002_Node000003" class="edge">
<title>Node2&#45;&gt;Node3</title>
<g id="a_edge2_Node000002_Node000003"><a xlink:title=" ">
<path fill="none" stroke="#63b8ff" d="M147.54,-54.98C123.42,-46.23 85.63,-32.51 58.4,-22.62"/>
<polygon fill="#63b8ff" stroke="#63b8ff" points="59.48,-19.29 48.88,-19.17 57.09,-25.87 59.48,-19.29"/>
</a>
</g>
</g>
<!-- Node4 -->
<g id="Node000004" class="node">
<title>Node4</title>
<g id="a_Node000004"><a xlink:title=" ">
<polygon fill="#e0e0e0" stroke="#999999" points="121.5,-19 68.5,-19 68.5,0 121.5,0 121.5,-19"/>
<text text-anchor="middle" x="95" y="-7" font-family="Helvetica,sans-Serif" font-size="10.00">stdlib.h</text>
</a>
</g>
</g>
<!-- Node2&#45;&gt;Node4 -->
<g id="edge3_Node000002_Node000004" class="edge">
<title>Node2&#45;&gt;Node4</title>
<g id="a_edge3_Node000002_Node000004"><a xlink:title=" ">
<path fill="none" stroke="#63b8ff" d="M158.79,-54.98C147.22,-46.92 129.62,-34.65 115.84,-25.03"/>
<polygon fill="#63b8ff" stroke="#63b8ff" points="117.64,-22.02 107.43,-19.17 113.63,-27.76 117.64,-22.02"/>
</a>
</g>
</g>
<!-- Node5 -->
<g id="Node000005" class="node">
<title>Node5</title>
<g id="a_Node000005"><a xlink:title=" ">
<polygon fill="#e0e0e0" stroke="#999999" points="202,-19 140,-19 140,0 202,0 202,-19"/>
<text text-anchor="middle" x="171" y="-7" font-family="Helvetica,sans-Serif" font-size="10.00">stdbool.h</text>
</a>
</g>
</g>
<!-- Node2&#45;&gt;Node5 -->
<g id="edge4_Node000002_Node000005" class="edge">
<title>Node2&#45;&gt;Node5</title>
<g id="a_edge4_Node000002_Node000005"><a xlink:title=" ">
<path fill="none" stroke="#63b8ff" d="M171,-54.75C171,-47.8 171,-37.85 171,-29.13"/>
<polygon fill="#63b8ff" stroke="#63b8ff" points="174.5,-29.09 171,-19.09 167.5,-29.09 174.5,-29.09"/>
</a>
</g>
</g>
<!-- Node6 -->
<g id="Node000006" class="node">
<title>Node6</title>
<g id="a_Node000006"><a xlink:title=" ">
<polygon fill="#e0e0e0" stroke="#999999" points="273.5,-19 220.5,-19 220.5,0 273.5,0 273.5,-19"/>
<text text-anchor="middle" x="247" y="-7" font-family="Helvetica,sans-Serif" font-size="10.00">string.h</text>
</a>
</g>
</g>
<!-- Node2&#45;&gt;Node6 -->
<g id="edge5_Node000002_Node000006" class="edge">
<title>Node2&#45;&gt;Node6</title>
<g id="a_edge5_Node000002_Node000006"><a xlink:title=" ">
<path fill="none" stroke="#63b8ff" d="M183.21,-54.98C194.78,-46.92 212.38,-34.65 226.16,-25.03"/>
<polygon fill="#63b8ff" stroke="#63b8ff" points="228.37,-27.76 234.57,-19.17 224.36,-22.02 228.37,-27.76"/>
</a>
</g>
</g>
<!-- Node7 -->
<g id="Node000007" class="node">
<title>Node7</title>
<g id="a_Node000007"><a xlink:title=" ">
<polygon fill="#e0e0e0" stroke="#999999" points="342.5,-19 291.5,-19 291.5,0 342.5,0 342.5,-19"/>
<text text-anchor="middle" x="317" y="-7" font-family="Helvetica,sans-Serif" font-size="10.00">math.h</text>
</a>
</g>
</g>
<!-- Node2&#45;&gt;Node7 -->
<g id="edge6_Node000002_Node000007" class="edge">
<title>Node2&#45;&gt;Node7</title>
<g id="a_edge6_Node000002_Node000007"><a xlink:title=" ">
<path fill="none" stroke="#63b8ff" d="M194.46,-54.98C218.58,-46.23 256.37,-32.51 283.6,-22.62"/>
<polygon fill="#63b8ff" stroke="#63b8ff" points="284.91,-25.87 293.12,-19.17 282.52,-19.29 284.91,-25.87"/>
</a>
</g>
</g>
</g>
</svg>
</svg>

<style type='text/css'>
<![CDATA[
[data-mouse-over-selected='false'] { opacity: 0.7; }
[data-mouse-over-selected='true']  { opacity: 1.0; }
]]>
</style>
<script type="application/ecmascript"><![CDATA[
document.addEventListener('DOMContentLoaded', (event) => {
  highlightEdges();
  highlightAdjacentNodes();
});
]]></script>
</svg>
