<?xml version="1.0" encoding="UTF-8" standalone="no"?>
<!DOCTYPE svg PUBLIC "-//W3C//DTD SVG 1.1//EN"
 "http://www.w3.org/Graphics/SVG/1.1/DTD/svg11.dtd">
<!-- Generated by graphviz version 2.43.0 (0)
 -->
<!-- Title: main Pages: 1 -->
<svg width="718pt" height="306pt"
 viewBox="0.00 0.00 718.00 306.00" xmlns="http://www.w3.org/2000/svg" xmlns:xlink="http://www.w3.org/1999/xlink">
<g id="graph0" class="graph" transform="scale(1 1) rotate(0) translate(4 302)">
<title>main</title>
<!-- Node1 -->
<g id="Node000001" class="node">
<title>Node1</title>
<g id="a_Node000001"><a xlink:title=" ">
<polygon fill="#999999" stroke="#666666" points="41,-205 0,-205 0,-186 41,-186 41,-205"/>
<text text-anchor="middle" x="20.5" y="-193" font-family="Helvetica,sans-Serif" font-size="10.00">main</text>
</a>
</g>
</g>
<!-- Node2 -->
<g id="Node000002" class="node">
<title>Node2</title>
<g id="a_Node000002"><a xlink:href="funcoes_8c.html#a4c87d13f1e63a821415e6921108504af" target="_top" xlink:title=" ">
<polygon fill="white" stroke="#666666" points="227,-261 77,-261 77,-242 227,-242 227,-261"/>
<text text-anchor="middle" x="152" y="-249" font-family="Helvetica,sans-Serif" font-size="10.00">CarregarAntenasDoFicheiro</text>
</a>
</g>
</g>
<!-- Node1&#45;&gt;Node2 -->
<g id="edge1_Node000001_Node000002" class="edge">
<title>Node1&#45;&gt;Node2</title>
<g id="a_edge1_Node000001_Node000002"><a xlink:title=" ">
<path fill="none" stroke="#63b8ff" d="M41.17,-204.01C62.03,-213.03 95.29,-227.41 119.75,-237.99"/>
<polygon fill="#63b8ff" stroke="#63b8ff" points="118.41,-241.22 128.97,-241.98 121.19,-234.79 118.41,-241.22"/>
</a>
</g>
</g>
<!-- Node5 -->
<g id="Node000005" class="node">
<title>Node5</title>
<g id="a_Node000005"><a xlink:href="funcoes_8c.html#a673217b5e06023cd2b87bde89cb2cd47" target="_top" xlink:title=" ">
<polygon fill="white" stroke="#666666" points="192.5,-205 111.5,-205 111.5,-186 192.5,-186 192.5,-205"/>
<text text-anchor="middle" x="152" y="-193" font-family="Helvetica,sans-Serif" font-size="10.00">LibertarGrafo</text>
</a>
</g>
</g>
<!-- Node1&#45;&gt;Node5 -->
<g id="edge4_Node000001_Node000005" class="edge">
<title>Node1&#45;&gt;Node5</title>
<g id="a_edge4_Node000001_Node000005"><a xlink:title=" ">
<path fill="none" stroke="#63b8ff" d="M41.17,-195.5C57.1,-195.5 80.26,-195.5 101.21,-195.5"/>
<polygon fill="#63b8ff" stroke="#63b8ff" points="101.27,-199 111.27,-195.5 101.27,-192 101.27,-199"/>
</a>
</g>
</g>
<!-- Node6 -->
<g id="Node000006" class="node">
<title>Node6</title>
<g id="a_Node000006"><a xlink:href="funcoes_8c.html#acf0027806e310a01722e1182a6518978" target="_top" xlink:title=" ">
<polygon fill="white" stroke="#666666" points="187.5,-148 116.5,-148 116.5,-129 187.5,-129 187.5,-148"/>
<text text-anchor="middle" x="152" y="-136" font-family="Helvetica,sans-Serif" font-size="10.00">Resultados</text>
</a>
</g>
</g>
<!-- Node1&#45;&gt;Node6 -->
<g id="edge5_Node000001_Node000006" class="edge">
<title>Node1&#45;&gt;Node6</title>
<g id="a_edge5_Node000001_Node000006"><a xlink:title=" ">
<path fill="none" stroke="#63b8ff" d="M41.17,-186.84C62.16,-177.6 95.69,-162.85 120.19,-152.06"/>
<polygon fill="#63b8ff" stroke="#63b8ff" points="121.67,-155.23 129.42,-148 118.85,-148.83 121.67,-155.23"/>
</a>
</g>
</g>
<!-- Node3 -->
<g id="Node000003" class="node">
<title>Node3</title>
<g id="a_Node000003"><a xlink:href="funcoes_8c.html#ac46c75e7294c945af23d9da3e3b5a768" target="_top" xlink:title=" ">
<polygon fill="white" stroke="#666666" points="373.5,-298 295.5,-298 295.5,-279 373.5,-279 373.5,-298"/>
<text text-anchor="middle" x="334.5" y="-286" font-family="Helvetica,sans-Serif" font-size="10.00">AdicionarAdj</text>
</a>
</g>
</g>
<!-- Node2&#45;&gt;Node3 -->
<g id="edge2_Node000002_Node000003" class="edge">
<title>Node2&#45;&gt;Node3</title>
<g id="a_edge2_Node000002_Node000003"><a xlink:title=" ">
<path fill="none" stroke="#63b8ff" d="M199.48,-261.03C225.88,-266.44 258.87,-273.2 285.51,-278.66"/>
<polygon fill="#63b8ff" stroke="#63b8ff" points="284.89,-282.11 295.38,-280.69 286.29,-275.25 284.89,-282.11"/>
</a>
</g>
</g>
<!-- Node4 -->
<g id="Node000004" class="node">
<title>Node4</title>
<g id="a_Node000004"><a xlink:href="funcoes_8c.html#ad16278693879a2a9c2b3cb401bba4d36" target="_top" xlink:title=" ">
<polygon fill="white" stroke="#666666" points="383,-261 286,-261 286,-242 383,-242 383,-261"/>
<text text-anchor="middle" x="334.5" y="-249" font-family="Helvetica,sans-Serif" font-size="10.00">AdicionarAntena</text>
</a>
</g>
</g>
<!-- Node2&#45;&gt;Node4 -->
<g id="edge3_Node000002_Node000004" class="edge">
<title>Node2&#45;&gt;Node4</title>
<g id="a_edge3_Node000002_Node000004"><a xlink:title=" ">
<path fill="none" stroke="#63b8ff" d="M227.2,-251.5C243.31,-251.5 260.14,-251.5 275.52,-251.5"/>
<polygon fill="#63b8ff" stroke="#63b8ff" points="275.91,-255 285.91,-251.5 275.91,-248 275.91,-255"/>
</a>
</g>
</g>
<!-- Node7 -->
<g id="Node000007" class="node">
<title>Node7</title>
<g id="a_Node000007"><a xlink:href="funcoes_8c.html#af1bdd09c7693f114da612b96c50ba3a9" target="_top" xlink:title=" ">
<polygon fill="white" stroke="#666666" points="390.5,-224 278.5,-224 278.5,-205 390.5,-205 390.5,-224"/>
<text text-anchor="middle" x="334.5" y="-212" font-family="Helvetica,sans-Serif" font-size="10.00">EncontrarCaminhos</text>
</a>
</g>
</g>
<!-- Node6&#45;&gt;Node7 -->
<g id="edge6_Node000006_Node000007" class="edge">
<title>Node6&#45;&gt;Node7</title>
<g id="a_edge6_Node000006_Node000007"><a xlink:title=" ">
<path fill="none" stroke="#63b8ff" d="M171.79,-148.18C193.46,-159.16 230.3,-177.26 263,-190.5 272.71,-194.43 283.33,-198.28 293.32,-201.7"/>
<polygon fill="#63b8ff" stroke="#63b8ff" points="292.44,-205.1 303.03,-204.97 294.67,-198.46 292.44,-205.1"/>
</a>
</g>
</g>
<!-- Node10 -->
<g id="Node000010" class="node">
<title>Node10</title>
<g id="a_Node000010"><a xlink:href="funcoes_8c.html#a5f4ca7899307299d713da05e73505b69" target="_top" xlink:title=" ">
<polygon fill="white" stroke="#666666" points="554.5,-187 459.5,-187 459.5,-168 554.5,-168 554.5,-187"/>
<text text-anchor="middle" x="507" y="-175" font-family="Helvetica,sans-Serif" font-size="10.00">LimparVisitados</text>
</a>
</g>
</g>
<!-- Node6&#45;&gt;Node10 -->
<g id="edge12_Node000006_Node000010" class="edge">
<title>Node6&#45;&gt;Node10</title>
<g id="a_edge12_Node000006_Node000010"><a xlink:title=" ">
<path fill="none" stroke="#63b8ff" d="M187.56,-145.28C209.17,-149.32 237.62,-154.27 263,-157.5 326.51,-165.58 399.79,-171.1 449.13,-174.25"/>
<polygon fill="#63b8ff" stroke="#63b8ff" points="449.09,-177.76 459.29,-174.89 449.53,-170.77 449.09,-177.76"/>
</a>
</g>
</g>
<!-- Node11 -->
<g id="Node000011" class="node">
<title>Node11</title>
<g id="a_Node000011"><a xlink:href="funcoes_8c.html#a7a2f033a77edbf2fb3971d2471bfea49" target="_top" xlink:title=" ">
<polygon fill="white" stroke="#666666" points="395.5,-148 273.5,-148 273.5,-129 395.5,-129 395.5,-148"/>
<text text-anchor="middle" x="334.5" y="-136" font-family="Helvetica,sans-Serif" font-size="10.00">MostrarInterferencias</text>
</a>
</g>
</g>
<!-- Node6&#45;&gt;Node11 -->
<g id="edge13_Node000006_Node000011" class="edge">
<title>Node6&#45;&gt;Node11</title>
<g id="a_edge13_Node000006_Node000011"><a xlink:title=" ">
<path fill="none" stroke="#63b8ff" d="M187.8,-138.5C209.15,-138.5 237.24,-138.5 263.07,-138.5"/>
<polygon fill="#63b8ff" stroke="#63b8ff" points="263.21,-142 273.21,-138.5 263.21,-135 263.21,-142"/>
</a>
</g>
</g>
<!-- Node12 -->
<g id="Node000012" class="node">
<title>Node12</title>
<g id="a_Node000012"><a xlink:href="funcoes_8c.html#a86286bb4f2de0e99bbd66dc24d04a139" target="_top" xlink:title=" ">
<polygon fill="white" stroke="#666666" points="389.5,-111 279.5,-111 279.5,-92 389.5,-92 389.5,-111"/>
<text text-anchor="middle" x="334.5" y="-99" font-family="Helvetica,sans-Serif" font-size="10.00">MostrarIntersecoes</text>
</a>
</g>
</g>
<!-- Node6&#45;&gt;Node12 -->
<g id="edge14_Node000006_Node000012" class="edge">
<title>Node6&#45;&gt;Node12</title>
<g id="a_edge14_Node000006_Node000012"><a xlink:title=" ">
<path fill="none" stroke="#63b8ff" d="M187.8,-131.37C213,-126.2 247.62,-119.1 276.79,-113.12"/>
<polygon fill="#63b8ff" stroke="#63b8ff" points="277.76,-116.5 286.86,-111.06 276.36,-109.64 277.76,-116.5"/>
</a>
</g>
</g>
<!-- Node13 -->
<g id="Node000013" class="node">
<title>Node13</title>
<g id="a_Node000013"><a xlink:href="funcoes_8c.html#ac270724ecaf8fdb9a56b8a16535e9f2b" target="_top" xlink:title=" ">
<polygon fill="white" stroke="#666666" points="392,-74 277,-74 277,-55 392,-55 392,-74"/>
<text text-anchor="middle" x="334.5" y="-62" font-family="Helvetica,sans-Serif" font-size="10.00">TravessiaEmLargura</text>
</a>
</g>
</g>
<!-- Node6&#45;&gt;Node13 -->
<g id="edge15_Node000006_Node000013" class="edge">
<title>Node6&#45;&gt;Node13</title>
<g id="a_edge15_Node000006_Node000013"><a xlink:title=" ">
<path fill="none" stroke="#63b8ff" d="M169.67,-128.84C190.82,-116.9 228.67,-96.56 263,-83.5 269.29,-81.11 276,-78.89 282.69,-76.88"/>
<polygon fill="#63b8ff" stroke="#63b8ff" points="283.78,-80.21 292.42,-74.08 281.84,-73.48 283.78,-80.21"/>
</a>
</g>
</g>
<!-- Node14 -->
<g id="Node000014" class="node">
<title>Node14</title>
<g id="a_Node000014"><a xlink:href="funcoes_8c.html#affc8344f765fac08919ef2ef9625241e" target="_top" xlink:title=" ">
<polygon fill="white" stroke="#666666" points="406,-19 263,-19 263,0 406,0 406,-19"/>
<text text-anchor="middle" x="334.5" y="-7" font-family="Helvetica,sans-Serif" font-size="10.00">TravessiaEmProfundidade</text>
</a>
</g>
</g>
<!-- Node6&#45;&gt;Node14 -->
<g id="edge16_Node000006_Node000014" class="edge">
<title>Node6&#45;&gt;Node14</title>
<g id="a_edge16_Node000006_Node000014"><a xlink:title=" ">
<path fill="none" stroke="#63b8ff" d="M162.69,-128.95C181.14,-111.11 223.02,-72.09 263,-45.5 275.31,-37.31 289.72,-29.65 302.3,-23.51"/>
<polygon fill="#63b8ff" stroke="#63b8ff" points="303.97,-26.6 311.49,-19.14 300.96,-20.28 303.97,-26.6"/>
</a>
</g>
</g>
<!-- Node8 -->
<g id="Node000008" class="node">
<title>Node8</title>
<g id="a_Node000008"><a xlink:href="funcoes_8c.html#a7d414ff6224e9040d3368de4bea3cfe1" target="_top" xlink:title=" ">
<polygon fill="white" stroke="#666666" points="572,-224 442,-224 442,-205 572,-205 572,-224"/>
<text text-anchor="middle" x="507" y="-212" font-family="Helvetica,sans-Serif" font-size="10.00">EncontrarCaminhosRec</text>
</a>
</g>
</g>
<!-- Node7&#45;&gt;Node8 -->
<g id="edge7_Node000007_Node000008" class="edge">
<title>Node7&#45;&gt;Node8</title>
<g id="a_edge7_Node000007_Node000008"><a xlink:title=" ">
<path fill="none" stroke="#63b8ff" d="M390.86,-214.5C403.8,-214.5 417.79,-214.5 431.41,-214.5"/>
<polygon fill="#63b8ff" stroke="#63b8ff" points="431.73,-218 441.73,-214.5 431.73,-211 431.73,-218"/>
</a>
</g>
</g>
<!-- Node7&#45;&gt;Node10 -->
<g id="edge11_Node000007_Node000010" class="edge">
<title>Node7&#45;&gt;Node10</title>
<g id="a_edge11_Node000007_Node000010"><a xlink:title=" ">
<path fill="none" stroke="#63b8ff" d="M379.41,-204.97C401.6,-200.16 428.71,-194.27 452.15,-189.19"/>
<polygon fill="#63b8ff" stroke="#63b8ff" points="452.91,-192.6 461.94,-187.06 451.43,-185.76 452.91,-192.6"/>
</a>
</g>
</g>
<!-- Node8&#45;&gt;Node8 -->
<g id="edge8_Node000008_Node000008" class="edge">
<title>Node8&#45;&gt;Node8</title>
<g id="a_edge8_Node000008_Node000008"><a xlink:title=" ">
<path fill="none" stroke="#63b8ff" d="M483.57,-224.08C472.18,-232.73 479.98,-242 507,-242 524.73,-242 534.19,-238.01 535.37,-232.82"/>
<polygon fill="#63b8ff" stroke="#63b8ff" points="538.4,-231.06 530.43,-224.08 532.31,-234.51 538.4,-231.06"/>
</a>
</g>
</g>
<!-- Node9 -->
<g id="Node000009" class="node">
<title>Node9</title>
<g id="a_Node000009"><a xlink:href="funcoes_8c.html#a600533fd77bfb8d9f859d07b84d93bf9" target="_top" xlink:title=" ">
<polygon fill="white" stroke="#666666" points="710,-224 608,-224 608,-205 710,-205 710,-224"/>
<text text-anchor="middle" x="659" y="-212" font-family="Helvetica,sans-Serif" font-size="10.00">ImprimirCaminho</text>
</a>
</g>
</g>
<!-- Node8&#45;&gt;Node9 -->
<g id="edge9_Node000008_Node000009" class="edge">
<title>Node8&#45;&gt;Node9</title>
<g id="a_edge9_Node000008_Node000009"><a xlink:title=" ">
<path fill="none" stroke="#63b8ff" d="M572.05,-214.5C580.54,-214.5 589.22,-214.5 597.65,-214.5"/>
<polygon fill="#63b8ff" stroke="#63b8ff" points="597.77,-218 607.77,-214.5 597.77,-211 597.77,-218"/>
</a>
</g>
</g>
<!-- Node9&#45;&gt;Node9 -->
<g id="edge10_Node000009_Node000009" class="edge">
<title>Node9&#45;&gt;Node9</title>
<g id="a_edge10_Node000009_Node000009"><a xlink:title=" ">
<path fill="none" stroke="#63b8ff" d="M635.57,-224.08C624.18,-232.73 631.98,-242 659,-242 676.73,-242 686.19,-238.01 687.37,-232.82"/>
<polygon fill="#63b8ff" stroke="#63b8ff" points="690.4,-231.06 682.43,-224.08 684.31,-234.51 690.4,-231.06"/>
</a>
</g>
</g>
<!-- Node14&#45;&gt;Node14 -->
<g id="edge17_Node000014_Node000014" class="edge">
<title>Node14&#45;&gt;Node14</title>
<g id="a_edge17_Node000014_Node000014"><a xlink:title=" ">
<path fill="none" stroke="#63b8ff" d="M307.99,-19.08C295.09,-27.73 303.93,-37 334.5,-37 355.04,-37 365.77,-32.82 366.69,-27.45"/>
<polygon fill="#63b8ff" stroke="#63b8ff" points="369.52,-25.39 361.01,-19.08 363.73,-29.32 369.52,-25.39"/>
</a>
</g>
</g>
</g>
</svg>
