<?xml version="1.0" encoding="UTF-8" standalone="no"?>
<!DOCTYPE svg PUBLIC "-//W3C//DTD SVG 1.1//EN"
 "http://www.w3.org/Graphics/SVG/1.1/DTD/svg11.dtd">
<!-- Generated by graphviz version 2.43.0 (0)
 -->
<!-- Title: Grafo Pages: 1 -->
<svg width="229pt" height="93pt"
 viewBox="0.00 0.00 229.00 93.00" xmlns="http://www.w3.org/2000/svg" xmlns:xlink="http://www.w3.org/1999/xlink">
<g id="graph0" class="graph" transform="scale(1 1) rotate(0) translate(4 89)">
<title>Grafo</title>
<!-- Node1 -->
<g id="Node000001" class="node">
<title>Node1</title>
<g id="a_Node000001"><a xlink:title=" ">
<polygon fill="#999999" stroke="#666666" points="44,-19 0,-19 0,0 44,0 44,-19"/>
<text text-anchor="middle" x="22" y="-7" font-family="Helvetica,sans-Serif" font-size="10.00">Grafo</text>
</a>
</g>
</g>
<!-- Node2 -->
<g id="Node000002" class="node">
<title>Node2</title>
<g id="a_Node000002"><a xlink:href="structAntena.html" target="_top" xlink:title=" ">
<polygon fill="white" stroke="#666666" points="113.5,-85 62.5,-85 62.5,-66 113.5,-66 113.5,-85"/>
<text text-anchor="middle" x="88" y="-73" font-family="Helvetica,sans-Serif" font-size="10.00">Antena</text>
</a>
</g>
</g>
<!-- Node2&#45;&gt;Node1 -->
<g id="edge1_Node000001_Node000002" class="edge">
<title>Node2&#45;&gt;Node1</title>
<g id="a_edge1_Node000001_Node000002"><a xlink:title=" ">
<path fill="none" stroke="#9a32cd" stroke-dasharray="5,2" d="M53.22,-61.97C46.49,-58.29 39.99,-53.69 35,-48 27.82,-39.82 24.55,-27.45 23.1,-19.18"/>
<polygon fill="#9a32cd" stroke="#9a32cd" points="51.89,-65.22 62.42,-66.43 54.94,-58.92 51.89,-65.22"/>
</a>
</g>
<text text-anchor="middle" x="56.5" y="-40" font-family="Helvetica,sans-Serif" font-size="10.00" fill="grey"> antenas</text>
</g>
<!-- Node2&#45;&gt;Node2 -->
<g id="edge5_Node000002_Node000002" class="edge">
<title>Node2&#45;&gt;Node2</title>
<g id="a_edge5_Node000002_Node000002"><a xlink:title=" ">
<path fill="none" stroke="#9a32cd" stroke-dasharray="5,2" d="M124.06,-80.71C128.55,-79.79 131.5,-78.05 131.5,-75.5 131.5,-71.31 123.55,-69.32 113.9,-69.51"/>
<polygon fill="#9a32cd" stroke="#9a32cd" points="123.61,-77.24 113.9,-81.49 124.14,-84.22 123.61,-77.24"/>
</a>
</g>
<text text-anchor="middle" x="153.5" y="-73" font-family="Helvetica,sans-Serif" font-size="10.00" fill="grey"> proxima</text>
</g>
<!-- Node3 -->
<g id="Node000003" class="node">
<title>Node3</title>
<g id="a_Node000003"><a xlink:href="structAdjacencia.html" target="_top" xlink:title=" ">
<polygon fill="white" stroke="#666666" points="159,-19 89,-19 89,0 159,0 159,-19"/>
<text text-anchor="middle" x="124" y="-7" font-family="Helvetica,sans-Serif" font-size="10.00">Adjacencia</text>
</a>
</g>
</g>
<!-- Node2&#45;&gt;Node3 -->
<g id="edge3_Node000003_Node000002" class="edge">
<title>Node2&#45;&gt;Node3</title>
<g id="a_edge3_Node000003_Node000002"><a xlink:title=" ">
<path fill="none" stroke="#9a32cd" stroke-dasharray="5,2" d="M82.61,-56.11C81.73,-49.75 81.95,-42.77 85,-37 89.06,-29.33 96.44,-23.47 103.7,-19.23"/>
<polygon fill="#9a32cd" stroke="#9a32cd" points="79.21,-56.93 84.8,-65.93 86.04,-55.4 79.21,-56.93"/>
</a>
</g>
<text text-anchor="middle" x="105" y="-40" font-family="Helvetica,sans-Serif" font-size="10.00" fill="grey"> destino</text>
</g>
<!-- Node3&#45;&gt;Node2 -->
<g id="edge2_Node000002_Node000003" class="edge">
<title>Node3&#45;&gt;Node2</title>
<g id="a_edge2_Node000002_Node000003"><a xlink:title=" ">
<path fill="none" stroke="#9a32cd" stroke-dasharray="5,2" d="M130.81,-28.89C132.06,-35.26 132.14,-42.23 129,-48 124.7,-55.89 116.94,-61.79 109.31,-65.99"/>
<polygon fill="#9a32cd" stroke="#9a32cd" points="134.1,-27.69 127.94,-19.08 127.39,-29.66 134.1,-27.69"/>
</a>
</g>
<text text-anchor="middle" x="153" y="-40" font-family="Helvetica,sans-Serif" font-size="10.00" fill="grey"> ligacoes</text>
</g>
<!-- Node3&#45;&gt;Node3 -->
<g id="edge4_Node000003_Node000003" class="edge">
<title>Node3&#45;&gt;Node3</title>
<g id="a_edge4_Node000003_Node000003"><a xlink:title=" ">
<path fill="none" stroke="#9a32cd" stroke-dasharray="5,2" d="M169.23,-14.47C173.97,-13.5 177,-11.84 177,-9.5 177,-5.75 169.24,-3.76 159.17,-3.52"/>
<polygon fill="#9a32cd" stroke="#9a32cd" points="168.77,-11 159.17,-15.48 169.47,-17.97 168.77,-11"/>
</a>
</g>
<text text-anchor="middle" x="199" y="-7" font-family="Helvetica,sans-Serif" font-size="10.00" fill="grey"> proxima</text>
</g>
</g>
</svg>
