<?xml version="1.0" encoding="UTF-8" standalone="no"?>
<!DOCTYPE svg PUBLIC "-//W3C//DTD SVG 1.1//EN"
 "http://www.w3.org/Graphics/SVG/1.1/DTD/svg11.dtd">
<!-- Generated by graphviz version 2.43.0 (0)
 -->
<!-- Title: Antena Pages: 1 -->
<svg width="141pt" height="93pt"
 viewBox="0.00 0.00 140.71 93.00" xmlns="http://www.w3.org/2000/svg" xmlns:xlink="http://www.w3.org/1999/xlink">

<svg id="main" version="1.1" xmlns="http://www.w3.org/2000/svg" xmlns:xlink="http://www.w3.org/1999/xlink" xml:space="preserve" onload="init(evt)">
<style type="text/css"><![CDATA[
.node, .edge {opacity: 0.7;}
.node.selected, .edge.selected {opacity: 1;}
.edge:hover path { stroke: red; }
.edge:hover polygon { stroke: red; fill: red; }
]]></style>
<script type="application/ecmascript" xlink:href="svg.min.js"/>
<svg id="graph" class="graph">
<g id="graph0" class="graph" transform="scale(1 1) rotate(0) translate(4 89)">
<title>Antena</title>
<!-- Node1 -->
<g id="Node000001" class="node">
<title>Node1</title>
<g id="a_Node000001"><a xlink:title=" ">
<polygon fill="#999999" stroke="#666666" points="61.21,-85 10.21,-85 10.21,-66 61.21,-66 61.21,-85"/>
<text text-anchor="middle" x="35.71" y="-73" font-family="Helvetica,sans-Serif" font-size="10.00">Antena</text>
</a>
</g>
</g>
<!-- Node1&#45;&gt;Node1 -->
<g id="edge4_Node000001_Node000001" class="edge">
<title>Node1&#45;&gt;Node1</title>
<g id="a_edge4_Node000001_Node000001"><a xlink:title=" ">
<path fill="none" stroke="#9a32cd" stroke-dasharray="5,2" d="M71.77,-80.71C76.26,-79.79 79.21,-78.05 79.21,-75.5 79.21,-71.31 71.27,-69.32 61.62,-69.51"/>
<polygon fill="#9a32cd" stroke="#9a32cd" points="71.32,-77.24 61.62,-81.49 71.85,-84.22 71.32,-77.24"/>
</a>
</g>
<text text-anchor="middle" x="101.21" y="-73" font-family="Helvetica,sans-Serif" font-size="10.00" fill="grey"> proxima</text>
</g>
<!-- Node2 -->
<g id="Node000002" class="node">
<title>Node2</title>
<g id="a_Node000002"><a xlink:href="structAdjacencia.html" target="_top" xlink:title=" ">
<polygon fill="white" stroke="#666666" points="70.71,-19 0.71,-19 0.71,0 70.71,0 70.71,-19"/>
<text text-anchor="middle" x="35.71" y="-7" font-family="Helvetica,sans-Serif" font-size="10.00">Adjacencia</text>
</a>
</g>
</g>
<!-- Node1&#45;&gt;Node2 -->
<g id="edge2_Node000002_Node000001" class="edge">
<title>Node1&#45;&gt;Node2</title>
<g id="a_edge2_Node000002_Node000001"><a xlink:title=" ">
<path fill="none" stroke="#9a32cd" stroke-dasharray="5,2" d="M11,-59.79C7.24,-56.41 3.9,-52.47 1.71,-48 -3.84,-36.63 7.61,-26.19 18.7,-19.22"/>
<polygon fill="#9a32cd" stroke="#9a32cd" points="8.96,-62.64 19.04,-65.93 13.21,-57.08 8.96,-62.64"/>
</a>
</g>
<text text-anchor="middle" x="21.71" y="-40" font-family="Helvetica,sans-Serif" font-size="10.00" fill="grey"> destino</text>
</g>
<!-- Node2&#45;&gt;Node1 -->
<g id="edge1_Node000001_Node000002" class="edge">
<title>Node2&#45;&gt;Node1</title>
<g id="a_edge1_Node000001_Node000002"><a xlink:title=" ">
<path fill="none" stroke="#9a32cd" stroke-dasharray="5,2" d="M43.83,-28.42C45.73,-34.58 46.89,-41.55 45.71,-48 44.58,-54.19 42.08,-60.82 39.87,-65.89"/>
<polygon fill="#9a32cd" stroke="#9a32cd" points="47.09,-27.13 40.23,-19.05 40.55,-29.64 47.09,-27.13"/>
</a>
</g>
<text text-anchor="middle" x="67.71" y="-40" font-family="Helvetica,sans-Serif" font-size="10.00" fill="grey"> ligacoes</text>
</g>
<!-- Node2&#45;&gt;Node2 -->
<g id="edge3_Node000002_Node000002" class="edge">
<title>Node2&#45;&gt;Node2</title>
<g id="a_edge3_Node000002_Node000002"><a xlink:title=" ">
<path fill="none" stroke="#9a32cd" stroke-dasharray="5,2" d="M80.95,-14.47C85.68,-13.5 88.71,-11.84 88.71,-9.5 88.71,-5.75 80.95,-3.76 70.88,-3.52"/>
<polygon fill="#9a32cd" stroke="#9a32cd" points="80.48,-11 70.88,-15.48 81.18,-17.97 80.48,-11"/>
</a>
</g>
<text text-anchor="middle" x="110.71" y="-7" font-family="Helvetica,sans-Serif" font-size="10.00" fill="grey"> proxima</text>
</g>
</g>
</svg>
</svg>

<style type='text/css'>
<![CDATA[
[data-mouse-over-selected='false'] { opacity: 0.7; }
[data-mouse-over-selected='true']  { opacity: 1.0; }
]]>
</style>
<script type="application/ecmascript"><![CDATA[
document.addEventListener('DOMContentLoaded', (event) => {
  highlightEdges();
  highlightAdjacentNodes();
});
]]></script>
</svg>
