<?xml version="1.0" encoding="UTF-8" standalone="no"?>
<!DOCTYPE svg PUBLIC "-//W3C//DTD SVG 1.1//EN"
 "http://www.w3.org/Graphics/SVG/1.1/DTD/svg11.dtd">
<!-- Generated by graphviz version 2.43.0 (0)
 -->
<!-- Title: Adjacencia Pages: 1 -->
<svg width="143pt" height="93pt"
 viewBox="0.00 0.00 142.81 93.00" xmlns="http://www.w3.org/2000/svg" xmlns:xlink="http://www.w3.org/1999/xlink">

<svg id="main" version="1.1" xmlns="http://www.w3.org/2000/svg" xmlns:xlink="http://www.w3.org/1999/xlink" xml:space="preserve" onload="init(evt)">
<style type="text/css"><![CDATA[
.node, .edge {opacity: 0.7;}
.node.selected, .edge.selected {opacity: 1;}
.edge:hover path { stroke: red; }
.edge:hover polygon { stroke: red; fill: red; }
]]></style>
<script type="application/ecmascript" xlink:href="svg.min.js"/>
<svg id="graph" class="graph">
<g id="graph0" class="graph" transform="scale(1 1) rotate(0) translate(4 89)">
<title>Adjacencia</title>
<!-- Node1 -->
<g id="Node000001" class="node">
<title>Node1</title>
<g id="a_Node000001"><a xlink:title=" ">
<polygon fill="#999999" stroke="#666666" points="72.81,-85 2.81,-85 2.81,-66 72.81,-66 72.81,-85"/>
<text text-anchor="middle" x="37.81" y="-73" font-family="Helvetica,sans-Serif" font-size="10.00">Adjacencia</text>
</a>
</g>
</g>
<!-- Node1&#45;&gt;Node1 -->
<g id="edge4_Node000001_Node000001" class="edge">
<title>Node1&#45;&gt;Node1</title>
<g id="a_edge4_Node000001_Node000001"><a xlink:title=" ">
<path fill="none" stroke="#9a32cd" stroke-dasharray="5,2" d="M83.04,-80.47C87.78,-79.5 90.81,-77.84 90.81,-75.5 90.81,-71.75 83.04,-69.76 72.98,-69.52"/>
<polygon fill="#9a32cd" stroke="#9a32cd" points="82.58,-77 72.98,-81.48 83.27,-83.97 82.58,-77"/>
</a>
</g>
<text text-anchor="middle" x="112.81" y="-73" font-family="Helvetica,sans-Serif" font-size="10.00" fill="grey"> proxima</text>
</g>
<!-- Node2 -->
<g id="Node000002" class="node">
<title>Node2</title>
<g id="a_Node000002"><a xlink:href="structAntena.html" target="_top" xlink:title=" ">
<polygon fill="white" stroke="#666666" points="63.31,-19 12.31,-19 12.31,0 63.31,0 63.31,-19"/>
<text text-anchor="middle" x="37.81" y="-7" font-family="Helvetica,sans-Serif" font-size="10.00">Antena</text>
</a>
</g>
</g>
<!-- Node1&#45;&gt;Node2 -->
<g id="edge2_Node000002_Node000001" class="edge">
<title>Node1&#45;&gt;Node2</title>
<g id="a_edge2_Node000002_Node000001"><a xlink:title=" ">
<path fill="none" stroke="#9a32cd" stroke-dasharray="5,2" d="M11.45,-59.82C7.56,-56.46 4.09,-52.52 1.81,-48 -4.06,-36.4 8.07,-25.99 19.8,-19.09"/>
<polygon fill="#9a32cd" stroke="#9a32cd" points="9.65,-62.85 19.79,-65.91 13.78,-57.19 9.65,-62.85"/>
</a>
</g>
<text text-anchor="middle" x="23.81" y="-40" font-family="Helvetica,sans-Serif" font-size="10.00" fill="grey"> ligacoes</text>
</g>
<!-- Node2&#45;&gt;Node1 -->
<g id="edge1_Node000001_Node000002" class="edge">
<title>Node2&#45;&gt;Node1</title>
<g id="a_edge1_Node000001_Node000002"><a xlink:title=" ">
<path fill="none" stroke="#9a32cd" stroke-dasharray="5,2" d="M47.01,-28.11C48.17,-31.01 49.17,-34.04 49.81,-37 52,-47.16 47.36,-58.47 43.23,-65.99"/>
<polygon fill="#9a32cd" stroke="#9a32cd" points="50.18,-26.6 42.78,-19.01 43.83,-29.55 50.18,-26.6"/>
</a>
</g>
<text text-anchor="middle" x="69.81" y="-40" font-family="Helvetica,sans-Serif" font-size="10.00" fill="grey"> destino</text>
</g>
<!-- Node2&#45;&gt;Node2 -->
<g id="edge3_Node000002_Node000002" class="edge">
<title>Node2&#45;&gt;Node2</title>
<g id="a_edge3_Node000002_Node000002"><a xlink:title=" ">
<path fill="none" stroke="#9a32cd" stroke-dasharray="5,2" d="M73.87,-14.71C78.36,-13.79 81.31,-12.05 81.31,-9.5 81.31,-5.31 73.36,-3.32 63.71,-3.51"/>
<polygon fill="#9a32cd" stroke="#9a32cd" points="73.41,-11.24 63.71,-15.49 73.95,-18.22 73.41,-11.24"/>
</a>
</g>
<text text-anchor="middle" x="103.31" y="-7" font-family="Helvetica,sans-Serif" font-size="10.00" fill="grey"> proxima</text>
</g>
</g>
</svg>
</svg>

<style type='text/css'>
<![CDATA[
[data-mouse-over-selected='false'] { opacity: 0.7; }
[data-mouse-over-selected='true']  { opacity: 1.0; }
]]>
</style>
<script type="application/ecmascript"><![CDATA[
document.addEventListener('DOMContentLoaded', (event) => {
  highlightEdges();
  highlightAdjacentNodes();
});
]]></script>
</svg>
