<?xml version="1.0" encoding="UTF-8" standalone="no"?>
<!DOCTYPE svg PUBLIC "-//W3C//DTD SVG 1.1//EN"
 "http://www.w3.org/Graphics/SVG/1.1/DTD/svg11.dtd">
<!-- Generated by graphviz version 2.43.0 (0)
 -->
<!-- Title: CaminhoNo Pages: 1 -->
<svg width="294pt" height="93pt"
 viewBox="0.00 0.00 294.00 93.00" xmlns="http://www.w3.org/2000/svg" xmlns:xlink="http://www.w3.org/1999/xlink">

<svg id="main" version="1.1" xmlns="http://www.w3.org/2000/svg" xmlns:xlink="http://www.w3.org/1999/xlink" xml:space="preserve" onload="init(evt)">
<style type="text/css"><![CDATA[
.node, .edge {opacity: 0.7;}
.node.selected, .edge.selected {opacity: 1;}
.edge:hover path { stroke: red; }
.edge:hover polygon { stroke: red; fill: red; }
]]></style>
<script type="application/ecmascript" xlink:href="svg.min.js"/>
<svg id="graph" class="graph">
<g id="graph0" class="graph" transform="scale(1 1) rotate(0) translate(4 89)">
<title>CaminhoNo</title>
<!-- Node1 -->
<g id="Node000001" class="node">
<title>Node1</title>
<g id="a_Node000001"><a xlink:title=" ">
<polygon fill="#999999" stroke="#666666" points="74,-19 0,-19 0,0 74,0 74,-19"/>
<text text-anchor="middle" x="37" y="-7" font-family="Helvetica,sans-Serif" font-size="10.00">CaminhoNo</text>
</a>
</g>
</g>
<!-- Node1&#45;&gt;Node1 -->
<g id="edge6_Node000001_Node000001" class="edge">
<title>Node1&#45;&gt;Node1</title>
<g id="a_edge6_Node000001_Node000001"><a xlink:title=" ">
<path fill="none" stroke="#9a32cd" stroke-dasharray="5,2" d="M84.19,-14.42C88.96,-13.45 92,-11.8 92,-9.5 92,-5.81 84.21,-3.82 74.02,-3.54"/>
<polygon fill="#9a32cd" stroke="#9a32cd" points="83.61,-10.96 74.02,-15.46 84.32,-17.93 83.61,-10.96"/>
</a>
</g>
<text text-anchor="middle" x="114" y="-7" font-family="Helvetica,sans-Serif" font-size="10.00" fill="grey"> proxima</text>
</g>
<!-- Node2 -->
<g id="Node000002" class="node">
<title>Node2</title>
<g id="a_Node000002"><a xlink:href="structAntena.html" target="_top" xlink:title=" ">
<polygon fill="white" stroke="#666666" points="151.5,-85 100.5,-85 100.5,-66 151.5,-66 151.5,-85"/>
<text text-anchor="middle" x="126" y="-73" font-family="Helvetica,sans-Serif" font-size="10.00">Antena</text>
</a>
</g>
</g>
<!-- Node2&#45;&gt;Node1 -->
<g id="edge1_Node000001_Node000002" class="edge">
<title>Node2&#45;&gt;Node1</title>
<g id="a_edge1_Node000001_Node000002"><a xlink:title=" ">
<path fill="none" stroke="#9a32cd" stroke-dasharray="5,2" d="M98.88,-60.98C91.87,-57.11 84.49,-52.66 78,-48 65.78,-39.22 53.22,-27.22 45.28,-19.18"/>
<polygon fill="#9a32cd" stroke="#9a32cd" points="97.6,-64.27 108.07,-65.89 100.89,-58.09 97.6,-64.27"/>
</a>
</g>
<text text-anchor="middle" x="96.5" y="-40" font-family="Helvetica,sans-Serif" font-size="10.00" fill="grey"> antena</text>
</g>
<!-- Node2&#45;&gt;Node2 -->
<g id="edge5_Node000002_Node000002" class="edge">
<title>Node2&#45;&gt;Node2</title>
<g id="a_edge5_Node000002_Node000002"><a xlink:title=" ">
<path fill="none" stroke="#9a32cd" stroke-dasharray="5,2" d="M162.06,-80.71C166.55,-79.79 169.5,-78.05 169.5,-75.5 169.5,-71.31 161.55,-69.32 151.9,-69.51"/>
<polygon fill="#9a32cd" stroke="#9a32cd" points="161.61,-77.24 151.9,-81.49 162.14,-84.22 161.61,-77.24"/>
</a>
</g>
<text text-anchor="middle" x="191.5" y="-73" font-family="Helvetica,sans-Serif" font-size="10.00" fill="grey"> proxima</text>
</g>
<!-- Node3 -->
<g id="Node000003" class="node">
<title>Node3</title>
<g id="a_Node000003"><a xlink:href="structAdjacencia.html" target="_top" xlink:title=" ">
<polygon fill="white" stroke="#666666" points="224,-19 154,-19 154,0 224,0 224,-19"/>
<text text-anchor="middle" x="189" y="-7" font-family="Helvetica,sans-Serif" font-size="10.00">Adjacencia</text>
</a>
</g>
</g>
<!-- Node2&#45;&gt;Node3 -->
<g id="edge3_Node000003_Node000002" class="edge">
<title>Node2&#45;&gt;Node3</title>
<g id="a_edge3_Node000003_Node000002"><a xlink:title=" ">
<path fill="none" stroke="#9a32cd" stroke-dasharray="5,2" d="M119.98,-55.96C118.99,-49.48 119.3,-42.48 123,-37 130.05,-26.57 141.96,-20.24 153.74,-16.4"/>
<polygon fill="#9a32cd" stroke="#9a32cd" points="116.66,-57.12 122.48,-65.98 123.45,-55.43 116.66,-57.12"/>
</a>
</g>
<text text-anchor="middle" x="143" y="-40" font-family="Helvetica,sans-Serif" font-size="10.00" fill="grey"> destino</text>
</g>
<!-- Node3&#45;&gt;Node2 -->
<g id="edge2_Node000002_Node000003" class="edge">
<title>Node3&#45;&gt;Node2</title>
<g id="a_edge2_Node000002_Node000003"><a xlink:title=" ">
<path fill="none" stroke="#9a32cd" stroke-dasharray="5,2" d="M180.77,-28.31C177.15,-34.97 172.47,-42.29 167,-48 160.08,-55.22 150.83,-61.42 142.87,-66"/>
<polygon fill="#9a32cd" stroke="#9a32cd" points="183.93,-29.81 185.28,-19.3 177.67,-26.68 183.93,-29.81"/>
</a>
</g>
<text text-anchor="middle" x="197" y="-40" font-family="Helvetica,sans-Serif" font-size="10.00" fill="grey"> ligacoes</text>
</g>
<!-- Node3&#45;&gt;Node3 -->
<g id="edge4_Node000003_Node000003" class="edge">
<title>Node3&#45;&gt;Node3</title>
<g id="a_edge4_Node000003_Node000003"><a xlink:title=" ">
<path fill="none" stroke="#9a32cd" stroke-dasharray="5,2" d="M234.23,-14.47C238.97,-13.5 242,-11.84 242,-9.5 242,-5.75 234.24,-3.76 224.17,-3.52"/>
<polygon fill="#9a32cd" stroke="#9a32cd" points="233.77,-11 224.17,-15.48 234.47,-17.97 233.77,-11"/>
</a>
</g>
<text text-anchor="middle" x="264" y="-7" font-family="Helvetica,sans-Serif" font-size="10.00" fill="grey"> proxima</text>
</g>
</g>
</svg>
</svg>

<style type='text/css'>
<![CDATA[
[data-mouse-over-selected='false'] { opacity: 0.7; }
[data-mouse-over-selected='true']  { opacity: 1.0; }
]]>
</style>
<script type="application/ecmascript"><![CDATA[
document.addEventListener('DOMContentLoaded', (event) => {
  highlightEdges();
  highlightAdjacentNodes();
});
]]></script>
</svg>
