<?xml version="1.0" encoding="UTF-8" standalone="no"?>
<!DOCTYPE svg PUBLIC "-//W3C//DTD SVG 1.1//EN"
 "http://www.w3.org/Graphics/SVG/1.1/DTD/svg11.dtd">
<!-- Generated by graphviz version 2.43.0 (0)
 -->
<!-- Title: FilaNo Pages: 1 -->
<svg width="268pt" height="93pt"
 viewBox="0.00 0.00 267.50 93.00" xmlns="http://www.w3.org/2000/svg" xmlns:xlink="http://www.w3.org/1999/xlink">
<g id="graph0" class="graph" transform="scale(1 1) rotate(0) translate(4 89)">
<title>FilaNo</title>
<!-- Node1 -->
<g id="Node000001" class="node">
<title>Node1</title>
<g id="a_Node000001"><a xlink:title=" ">
<polygon fill="#999999" stroke="#666666" points="47,-19 0,-19 0,0 47,0 47,-19"/>
<text text-anchor="middle" x="23.5" y="-7" font-family="Helvetica,sans-Serif" font-size="10.00">FilaNo</text>
</a>
</g>
</g>
<!-- Node1&#45;&gt;Node1 -->
<g id="edge6_Node000001_Node000001" class="edge">
<title>Node1&#45;&gt;Node1</title>
<g id="a_edge6_Node000001_Node000001"><a xlink:title=" ">
<path fill="none" stroke="#9a32cd" stroke-dasharray="5,2" d="M57.51,-14.79C62.01,-13.89 65,-12.13 65,-9.5 65,-5.19 56.96,-3.2 47.38,-3.54"/>
<polygon fill="#9a32cd" stroke="#9a32cd" points="57.13,-11.31 47.38,-15.46 57.59,-18.3 57.13,-11.31"/>
</a>
</g>
<text text-anchor="middle" x="87" y="-7" font-family="Helvetica,sans-Serif" font-size="10.00" fill="grey"> proxima</text>
</g>
<!-- Node2 -->
<g id="Node000002" class="node">
<title>Node2</title>
<g id="a_Node000002"><a xlink:href="structAntena.html" target="_top" xlink:title=" ">
<polygon fill="white" stroke="#666666" points="125,-85 74,-85 74,-66 125,-66 125,-85"/>
<text text-anchor="middle" x="99.5" y="-73" font-family="Helvetica,sans-Serif" font-size="10.00">Antena</text>
</a>
</g>
</g>
<!-- Node2&#45;&gt;Node1 -->
<g id="edge1_Node000001_Node000002" class="edge">
<title>Node2&#45;&gt;Node1</title>
<g id="a_edge1_Node000001_Node000002"><a xlink:title=" ">
<path fill="none" stroke="#9a32cd" stroke-dasharray="5,2" d="M70.93,-60.8C64.54,-57.1 58.02,-52.78 52.5,-48 42.66,-39.49 33.92,-27.2 28.67,-19.04"/>
<polygon fill="#9a32cd" stroke="#9a32cd" points="69.62,-64.07 80.08,-65.77 72.96,-57.92 69.62,-64.07"/>
</a>
</g>
<text text-anchor="middle" x="71" y="-40" font-family="Helvetica,sans-Serif" font-size="10.00" fill="grey"> antena</text>
</g>
<!-- Node2&#45;&gt;Node2 -->
<g id="edge5_Node000002_Node000002" class="edge">
<title>Node2&#45;&gt;Node2</title>
<g id="a_edge5_Node000002_Node000002"><a xlink:title=" ">
<path fill="none" stroke="#9a32cd" stroke-dasharray="5,2" d="M135.56,-80.71C140.05,-79.79 143,-78.05 143,-75.5 143,-71.31 135.05,-69.32 125.4,-69.51"/>
<polygon fill="#9a32cd" stroke="#9a32cd" points="135.11,-77.24 125.4,-81.49 135.64,-84.22 135.11,-77.24"/>
</a>
</g>
<text text-anchor="middle" x="165" y="-73" font-family="Helvetica,sans-Serif" font-size="10.00" fill="grey"> proxima</text>
</g>
<!-- Node3 -->
<g id="Node000003" class="node">
<title>Node3</title>
<g id="a_Node000003"><a xlink:href="structAdjacencia.html" target="_top" xlink:title=" ">
<polygon fill="white" stroke="#666666" points="197.5,-19 127.5,-19 127.5,0 197.5,0 197.5,-19"/>
<text text-anchor="middle" x="162.5" y="-7" font-family="Helvetica,sans-Serif" font-size="10.00">Adjacencia</text>
</a>
</g>
</g>
<!-- Node2&#45;&gt;Node3 -->
<g id="edge3_Node000003_Node000002" class="edge">
<title>Node2&#45;&gt;Node3</title>
<g id="a_edge3_Node000003_Node000002"><a xlink:title=" ">
<path fill="none" stroke="#9a32cd" stroke-dasharray="5,2" d="M93.48,-55.96C92.49,-49.48 92.8,-42.48 96.5,-37 103.55,-26.57 115.46,-20.24 127.24,-16.4"/>
<polygon fill="#9a32cd" stroke="#9a32cd" points="90.16,-57.12 95.98,-65.98 96.95,-55.43 90.16,-57.12"/>
</a>
</g>
<text text-anchor="middle" x="116.5" y="-40" font-family="Helvetica,sans-Serif" font-size="10.00" fill="grey"> destino</text>
</g>
<!-- Node3&#45;&gt;Node2 -->
<g id="edge2_Node000002_Node000003" class="edge">
<title>Node3&#45;&gt;Node2</title>
<g id="a_edge2_Node000002_Node000003"><a xlink:title=" ">
<path fill="none" stroke="#9a32cd" stroke-dasharray="5,2" d="M154.27,-28.31C150.65,-34.97 145.97,-42.29 140.5,-48 133.58,-55.22 124.33,-61.42 116.37,-66"/>
<polygon fill="#9a32cd" stroke="#9a32cd" points="157.43,-29.81 158.78,-19.3 151.17,-26.68 157.43,-29.81"/>
</a>
</g>
<text text-anchor="middle" x="170.5" y="-40" font-family="Helvetica,sans-Serif" font-size="10.00" fill="grey"> ligacoes</text>
</g>
<!-- Node3&#45;&gt;Node3 -->
<g id="edge4_Node000003_Node000003" class="edge">
<title>Node3&#45;&gt;Node3</title>
<g id="a_edge4_Node000003_Node000003"><a xlink:title=" ">
<path fill="none" stroke="#9a32cd" stroke-dasharray="5,2" d="M207.73,-14.47C212.47,-13.5 215.5,-11.84 215.5,-9.5 215.5,-5.75 207.74,-3.76 197.67,-3.52"/>
<polygon fill="#9a32cd" stroke="#9a32cd" points="207.27,-11 197.67,-15.48 207.97,-17.97 207.27,-11"/>
</a>
</g>
<text text-anchor="middle" x="237.5" y="-7" font-family="Helvetica,sans-Serif" font-size="10.00" fill="grey"> proxima</text>
</g>
</g>
</svg>
